HIERARCHY
ROOT root
{
	OFFSET 0.000000 0.000000 0.000000
	CHANNELS 6 Xposition Yposition Zposition Zrotation Yrotation Xrotation
	JOINT lhip
	{
		OFFSET 0.058581 -0.082280 -0.017664
		CHANNELS 3 Zrotation Yrotation Xrotation
		JOINT lknee
		{
			OFFSET 0.043451 -0.386469 0.008037
			CHANNELS 3 Zrotation Yrotation Xrotation
			JOINT lankle
			{
				OFFSET -0.014790 -0.426874 -0.037428
				CHANNELS 3 Zrotation Yrotation Xrotation
				JOINT ltoe
				{
					OFFSET 0.041054 -0.060286 0.122042
					CHANNELS 3 Zrotation Yrotation Xrotation
					End Site
					{
						OFFSET 0.000000 0.000000 0.000000
					}
				}
			}
		}
	}
	JOINT rhip
	{
		OFFSET -0.060310 -0.090513 -0.013543
		CHANNELS 3 Zrotation Yrotation Xrotation
		JOINT rknee
		{
			OFFSET -0.043257 -0.383688 -0.004843
			CHANNELS 3 Zrotation Yrotation Xrotation
			JOINT rankle
			{
				OFFSET 0.019056 -0.420046 -0.034562
				CHANNELS 3 Zrotation Yrotation Xrotation
				JOINT rtoe
				{
					OFFSET -0.034840 -0.062106 0.130323
					CHANNELS 3 Zrotation Yrotation Xrotation
					End Site
					{
						OFFSET 0.000000 0.000000 0.000000
					}
				}
			}
		}
	}
	JOINT lowerback
	{
		OFFSET 0.004439 0.124404 -0.038385
		CHANNELS 3 Zrotation Yrotation Xrotation
		JOINT upperback
		{
			OFFSET 0.004488 0.137956 0.026820
			CHANNELS 3 Zrotation Yrotation Xrotation
			JOINT chest
			{
				OFFSET -0.002265 0.056032 0.002855
				CHANNELS 3 Zrotation Yrotation Xrotation
				JOINT lowerneck
				{
					OFFSET -0.013390 0.211636 -0.033468
					CHANNELS 3 Zrotation Yrotation Xrotation
					JOINT upperneck
					{
						OFFSET 0.010113 0.088937 0.050410
						CHANNELS 3 Zrotation Yrotation Xrotation
						End Site
						{
							OFFSET 0.000000 0.000000 0.000000
						}
					}
				}
				JOINT lclavicle
				{
					OFFSET 0.071702 0.114000 -0.018898
					CHANNELS 3 Zrotation Yrotation Xrotation
					JOINT lshoulder
					{
						OFFSET 0.122921 0.045205 -0.019046
						CHANNELS 3 Zrotation Yrotation Xrotation
						JOINT lelbow
						{
							OFFSET 0.255332 -0.015649 -0.022946
							CHANNELS 3 Zrotation Yrotation Xrotation
							JOINT lwrist
							{
								OFFSET 0.265709 0.012698 -0.007375
								CHANNELS 3 Zrotation Yrotation Xrotation
								End Site
								{
									OFFSET 0.000000 0.000000 0.000000
								}
							}
						}
					}
				}
				JOINT rclavicle
				{
					OFFSET -0.082954 0.112472 -0.023707
					CHANNELS 3 Zrotation Yrotation Xrotation
					JOINT rshoulder
					{
						OFFSET -0.113228 0.046853 -0.008472
						CHANNELS 3 Zrotation Yrotation Xrotation
						JOINT relbow
						{
							OFFSET -0.260127 -0.014369 -0.031269
							CHANNELS 3 Zrotation Yrotation Xrotation
							JOINT rwrist
							{
								OFFSET -0.269108 0.006794 -0.006027
								CHANNELS 3 Zrotation Yrotation Xrotation
								End Site
								{
									OFFSET 0.000000 0.000000 0.000000
								}
							}
						}
					}
				}
			}
		}
	}
}
MOTION
Frames: 13
Frame Time: 0.033333
-0.594326 -0.463630 0.954848 77.559468 -4.089682 81.104470 6.833422 0.111639 -13.318541 -3.189966 6.229242 9.240862 0.817103 15.246803 -9.278759 0.000000 -0.000000 0.000000 -7.043461 -4.442395 11.943155 0.723321 3.337125 24.613745 1.247414 -10.339838 -28.285015 0.000000 -0.000000 0.000000 0.587638 6.458344 10.860923 -0.818756 1.249022 0.621479 -1.170166 3.508154 -1.814741 1.197803 5.727105 -10.060166 -0.114462 -1.378428 16.111188 -25.782240 -3.467756 3.456474 -35.601315 -4.026341 10.726263 -0.482567 -50.080983 0.982938 -15.243944 -16.920842 -25.991317 26.945426 10.607994 7.168231 37.758121 9.242918 10.362550 -8.121268 36.427676 -10.666711 31.485271 16.043587 -17.871438 
-0.578362 -0.457136 0.953242 77.305910 -4.368804 81.028336 7.047311 -0.861902 -14.840186 -4.072922 6.950376 13.828655 1.025274 14.638580 -9.695926 0.000000 -0.000000 0.000000 -8.018878 -4.306502 13.201834 0.325396 3.471703 24.236911 1.684168 -9.985150 -28.239481 0.000000 -0.000000 0.000000 0.317264 7.135941 11.145093 -0.505998 0.529177 1.111495 -1.203991 3.196529 -1.706655 1.179038 6.290381 -11.073035 -0.259081 -1.553295 15.898748 -25.664582 -4.323366 3.175660 -35.449244 -5.108985 10.519830 -0.434813 -49.013016 1.070927 -16.369870 -17.125496 -24.951276 27.206688 10.637168 6.886112 38.365810 9.186193 10.142920 -9.443826 36.323880 -12.328497 31.242419 16.548736 -18.322562 
-0.561940 -0.448869 0.951651 76.727987 -4.368682 81.349920 7.091130 -1.328106 -15.977422 -4.993878 6.824380 16.968844 0.699792 14.019576 -9.380598 0.000000 -0.000000 0.000000 -9.085828 -4.336511 13.901133 0.255842 3.957894 23.971333 2.037451 -9.309066 -27.946855 0.000000 -0.000000 0.000000 0.528179 7.614139 11.530801 -0.298999 0.178290 0.957520 -1.263090 3.102706 -2.133612 1.032343 6.372218 -10.978505 -0.154874 -1.437438 15.662798 -25.655925 -5.332048 3.336994 -35.367101 -5.465686 10.620768 -0.313282 -48.482968 1.379489 -17.397645 -17.304828 -24.826635 27.344190 10.865631 7.313651 38.508227 8.131569 10.423290 -10.329680 36.353853 -12.705619 31.822829 16.679151 -19.015092 
-0.538232 -0.437293 0.948402 75.062851 -4.118482 81.882767 7.130924 -0.348902 -16.734961 -5.786736 7.398135 20.416468 0.788099 13.398921 -9.310184 0.000000 -0.000000 0.000000 -10.519626 -4.075751 13.897405 0.420279 4.998673 24.919947 2.908937 -7.933840 -27.329355 0.000000 -0.000000 0.000000 0.915064 7.551794 11.332998 -0.015910 0.343002 0.982402 -1.298301 3.317215 -2.218179 0.925261 6.687928 -11.038750 -0.186911 -0.811319 15.823778 -25.901020 -5.577605 3.111414 -34.867421 -6.053208 10.492077 -1.193533 -48.787566 2.285954 -17.661990 -16.972519 -24.032481 27.691404 10.646102 7.464450 37.853661 7.927142 10.414937 -9.330367 35.985961 -11.651058 32.418857 15.996387 -18.264873 
-0.522601 -0.429691 0.946579 74.480071 -4.013693 81.960449 7.064167 0.038910 -17.170409 -6.108684 8.103666 22.920084 1.683413 13.655937 -10.444228 0.000000 -0.000000 0.000000 -11.606460 -3.999455 14.341582 0.656615 5.535432 25.373164 3.561262 -7.167847 -26.699418 0.000000 -0.000000 0.000000 1.089028 7.510125 11.397794 0.200248 0.095587 0.883131 -1.246589 3.209182 -2.276719 0.970276 6.594475 -10.658069 -0.138916 -0.209628 15.851692 -26.072654 -5.649111 3.170883 -34.580321 -6.179800 10.371163 -1.710297 -49.189794 2.753990 -17.384823 -16.844079 -23.780469 27.846644 10.690439 7.681260 37.681305 7.638739 10.447259 -9.374960 35.784234 -11.962510 32.534057 15.694620 -17.100073 
-0.499843 -0.419227 0.943903 73.689849 -3.984091 82.037966 7.163020 -0.182592 -17.515889 -6.900941 9.363743 25.989182 2.309378 13.514844 -12.399623 0.000000 -0.000000 0.000000 -12.979963 -3.513201 14.629120 0.788850 6.257436 26.646613 4.829390 -6.342313 -25.415174 0.000000 -0.000000 0.000000 1.001680 7.571042 11.125336 0.642918 -0.272775 0.858929 -1.108803 3.103548 -2.066386 1.063722 6.652260 -10.163467 -0.204268 0.409595 15.630751 -25.977215 -5.638855 3.122432 -34.489743 -6.580906 10.580979 -2.878598 -49.350060 3.789763 -15.997067 -17.010863 -23.573989 28.052356 10.317806 7.539292 37.527992 7.226142 10.900952 -9.462895 35.443248 -12.712395 31.586540 15.273256 -17.297602 
-0.476680 -0.407820 0.940792 73.164369 -3.937303 82.037771 6.944331 -0.201833 -17.544068 -7.560239 10.227206 28.483157 3.140987 13.217949 -14.447740 0.000000 -0.000000 0.000000 -14.390735 -3.300727 13.900349 1.150022 7.325336 29.999291 6.235895 -5.428949 -23.249913 0.000000 -0.000000 0.000000 0.941992 7.445779 11.011318 1.156081 -0.673242 0.977832 -0.997035 2.680612 -1.964744 1.279768 6.756389 -10.008939 -0.474393 1.205305 15.697741 -26.032516 -5.600146 3.180813 -34.190864 -6.800594 10.545407 -3.322748 -49.794917 4.615915 -16.041565 -17.136286 -23.306325 28.340618 9.448281 7.151246 37.178320 7.415365 10.731269 -9.696196 35.264246 -13.247077 32.343875 14.876879 -15.712220 
-0.451922 -0.396636 0.938221 73.299097 -3.667326 81.677640 6.340296 0.410534 -17.020631 -8.079569 10.287273 30.757825 4.104296 13.106923 -17.032859 0.000000 -0.000000 0.000000 -15.493677 -3.022929 12.796314 1.513119 6.945729 34.661939 7.623437 -4.810091 -19.886445 0.000000 -0.000000 0.000000 0.940333 6.834351 10.637028 1.840969 -1.202650 1.501824 -0.818508 2.347511 -1.774619 1.363399 6.533699 -9.435511 -0.816360 2.210942 15.245149 -26.188849 -6.113009 3.405809 -33.820535 -7.017635 10.597794 -3.694551 -49.913018 5.121993 -15.429937 -16.854522 -23.431337 28.706793 8.915615 6.961287 36.657256 6.793871 10.684954 -10.652431 35.642171 -14.612013 32.432534 14.777141 -15.696242 
-0.428079 -0.385329 0.936743 74.001208 -3.429098 81.182184 5.552994 0.629676 -16.044290 -8.502072 9.967147 32.028863 5.339193 13.061274 -19.122065 0.000000 -0.000000 0.000000 -16.649932 -3.248197 10.285758 1.774909 6.057803 41.406086 9.199076 -4.472547 -13.443903 0.000000 -0.000000 0.000000 0.783958 6.035291 10.927581 2.493805 -1.791615 1.386304 -0.538960 1.665864 -1.529397 1.405916 6.343151 -9.431720 -0.898453 3.570060 15.277373 -26.396572 -6.253583 3.632095 -33.444450 -7.730788 10.475926 -4.092779 -49.404743 5.195834 -14.534342 -17.505330 -23.038559 29.411047 8.112631 6.452604 35.939449 6.455847 10.836554 -10.977099 35.349599 -15.773571 31.940059 17.350857 -14.163252 
-0.402011 -0.372879 0.936171 75.044341 -2.998631 80.630911 4.720779 0.262746 -14.804101 -9.011395 9.450846 33.210672 6.636182 13.782313 -20.864826 0.000000 -0.000000 0.000000 -16.666704 -2.613824 5.654938 2.134279 5.319068 51.324002 8.230234 -6.548883 -4.362752 0.000000 -0.000000 0.000000 0.413043 4.848721 11.476107 3.475020 -2.242693 1.420752 -0.208418 0.574969 -1.349542 1.506817 6.355705 -9.523982 -1.290202 4.946594 15.316266 -26.497596 -6.781185 3.875696 -32.823279 -8.362751 9.988985 -3.913984 -49.019355 5.263915 -15.070176 -17.156254 -22.248910 29.912934 7.370931 5.899770 36.271354 5.858189 11.488876 -13.852743 35.393023 -18.697862 32.834545 16.038446 -14.651032 
-0.382583 -0.364735 0.937968 76.015214 -2.632402 80.509161 3.894689 0.150042 -13.788991 -9.092523 8.547637 33.414516 7.716895 14.303695 -21.833459 0.000000 -0.000000 0.000000 -16.186503 -2.920377 0.934756 1.933268 4.885459 58.874867 6.728563 -8.471780 3.127582 0.000000 -0.000000 0.000000 -0.229950 3.987209 11.833489 4.329378 -2.518038 1.097084 0.160611 -0.140850 -1.279728 1.658790 6.320136 -9.016367 -1.531933 5.569278 14.785965 -26.591880 -7.060219 4.224497 -32.085416 -9.226098 9.370797 -4.491432 -48.426139 6.176454 -15.372367 -16.736698 -21.232974 30.581290 6.167333 5.741786 36.567423 5.171660 11.728358 -15.903951 35.752304 -20.544279 33.090196 14.588174 -15.953235 
-0.364568 -0.358568 0.942215 77.239988 -2.021220 80.302505 3.310380 -0.179123 -12.079556 -9.003415 7.479313 32.476692 8.369247 14.650504 -22.370349 0.000000 -0.000000 0.000000 -14.759172 -2.266640 -3.416022 1.970687 3.498645 64.381454 3.783297 -11.600166 7.794032 0.000000 -0.000000 0.000000 -0.713485 2.811944 12.045680 5.149192 -2.651918 1.321027 0.433117 -0.823238 -0.915805 1.759724 6.766324 -9.120046 -1.805032 6.131534 14.079317 -26.545224 -7.251262 4.409984 -31.453345 -10.661534 8.814814 -4.568322 -47.430762 6.156731 -15.541276 -16.642943 -20.725845 31.317427 5.030956 5.017490 37.044128 4.890997 12.096150 -17.473316 35.447078 -22.016166 32.885377 15.108576 -16.484012 
-0.346557 -0.354589 0.949339 78.656301 -1.454009 79.929674 2.634352 0.048169 -9.589157 -8.712779 5.621732 30.553970 8.098805 14.516743 -22.416271 0.000000 -0.000000 0.000000 -13.408567 -2.135109 -7.248693 1.292201 1.304241 67.473198 2.286598 -12.983674 5.116819 0.000000 -0.000000 0.000000 -1.087968 1.487568 12.991551 5.583683 -2.921035 0.824004 0.768819 -1.559929 -0.980035 1.919628 7.831944 -9.115041 -2.015547 6.387134 14.118894 -26.147715 -7.326118 4.511695 -31.397846 -10.969269 8.543775 -4.309820 -46.991508 5.603933 -15.239210 -16.572660 -21.221592 31.725873 4.327497 4.673086 38.036917 4.141399 12.333287 -18.231537 35.082059 -22.280592 33.020176 15.688746 -16.631851 
